<svg id="Layer_1" data-name="Layer 1" xmlns="http://www.w3.org/2000/svg" viewBox="0 0 463.83 299.45"><defs><style>.cls-1{fill:#fff;}</style></defs><path class="cls-1" d="M693.75,812.82c-.9,0-1.81,0-2.71,0a74.86,74.86,0,0,1-61.45-36,76.38,76.38,0,0,1-4-72.59l68.11-144.39,68.11,144.39a76.38,76.38,0,0,1-3.94,72.59,74.86,74.86,0,0,1-61.44,36C695.56,812.81,694.66,812.82,693.75,812.82Zm0-159.28-31.93,67.7a36.5,36.5,0,0,0,1.91,34.68,34.51,34.51,0,0,0,28.65,16.88c.89,0,1.84,0,2.76,0a34.51,34.51,0,0,0,28.64-16.88,36.53,36.53,0,0,0,1.91-34.68Z" transform="translate(-461.84 -559.78)"/><path class="cls-1" d="M850.1,859.23a74.51,74.51,0,0,1-15.53-1.64c-.9-.18-1.79-.39-2.68-.61s-1.75-.45-2.62-.7a74.84,74.84,0,0,1-51-49.74A76.42,76.42,0,0,1,792,735.13L892.82,611.38l31.35,156.54a76.41,76.41,0,0,1-21.3,69.51A75,75,0,0,1,850.1,859.23Zm20.15-156.85L823,760.4a36.48,36.48,0,0,0-6.49,34.12,34.46,34.46,0,0,0,23.74,23.28l1.32.36,1.35.31A34.53,34.53,0,0,0,874.75,809a36.49,36.49,0,0,0,10.2-33.2Z" transform="translate(-461.84 -559.78)"/><path class="cls-1" d="M537.41,859.23a75,75,0,0,1-52.76-21.8,76.41,76.41,0,0,1-21.31-69.51l31.35-156.54L595.56,735.13a76.37,76.37,0,0,1,13.64,71.41,74.84,74.84,0,0,1-51,49.74c-.87.25-1.75.48-2.64.7s-1.76.43-2.65.61A74.61,74.61,0,0,1,537.41,859.23Zm-34.85-83.45A36.5,36.5,0,0,0,512.77,809a34.51,34.51,0,0,0,31.87,9.49l1.32-.31c.47-.11.91-.23,1.34-.35a34.52,34.52,0,0,0,23.75-23.29,36.48,36.48,0,0,0-6.5-34.12l-47.29-58Z" transform="translate(-461.84 -559.78)"/></svg>